<svg width="1000" height="264" viewBox="0 0 898 264" fill="none" xmlns="http://www.w3.org/2000/svg">
    <g clip-path="url(#clip0_288_122690)">
        <path d="M363.06 80.22C312.22 80.22 275.06 118.36 274.65 170.89C274.486 183.407 276.978 195.816 281.963 207.298C286.949 218.78 294.313 229.074 303.57 237.5C320.508 253.012 342.663 261.58 365.63 261.5C368.47 261.5 371.35 261.36 374.18 261.1C395.87 259.1 411.88 250.82 427.74 233.45C428.557 232.556 429.181 231.503 429.571 230.357C429.962 229.211 430.111 227.997 430.01 226.79C429.916 225.602 429.575 224.446 429.009 223.397C428.442 222.348 427.663 221.43 426.72 220.7L415.25 211.7C413.577 210.361 411.465 209.695 409.327 209.832C407.188 209.969 405.178 210.899 403.69 212.44C392.93 223.73 379.64 229.22 363.06 229.22C351.31 229.22 339.29 224.75 329.23 216.64C319.97 209.17 313.23 199.3 310.65 189.57V189.38H436.15C440.79 189.38 446.15 185.76 446.49 181.13C446.74 177.92 446.87 175.64 446.87 174.35C446.83 118.07 413.17 80.22 363.06 80.22ZM310.45 157.09V156.93C310.7 146.37 316.29 135.41 325.78 126.85C336.005 117.64 349.288 112.557 363.05 112.59C369.88 112.608 376.631 114.047 382.874 116.818C389.117 119.588 394.714 123.628 399.31 128.68C407.15 137.09 412.18 147.92 412.43 156.93V157.09H310.45Z" fill="#FFCF03"/>
        <path d="M841.18 81.2299H767.89H752.39C747.806 81.1712 743.386 82.9354 740.103 86.1345C736.819 89.3337 734.941 93.706 734.88 98.2899V249.19C734.894 250.297 735.127 251.39 735.564 252.408C736.001 253.425 736.634 254.346 737.427 255.119C738.22 255.891 739.157 256.5 740.185 256.911C741.214 257.321 742.313 257.524 743.42 257.51H759.36C761.594 257.537 763.747 256.675 765.347 255.115C766.946 253.555 767.861 251.424 767.89 249.19V195.74H841.18C856.152 195.724 870.506 189.769 881.093 179.183C891.68 168.596 897.634 154.242 897.65 139.27V137.7C897.634 122.728 891.68 108.374 881.093 97.7872C870.506 87.2004 856.152 81.2458 841.18 81.2299V81.2299ZM865.52 139.23C865.512 145.947 862.839 152.387 858.089 157.136C853.338 161.885 846.897 164.555 840.18 164.56H766.89V112.37H840.18C846.897 112.375 853.338 115.045 858.089 119.794C862.839 124.543 865.512 130.983 865.52 137.7V139.23Z" fill="#FFCF03"/>
        <path d="M134 0C133.69 0 133.38 0 133.06 0C126.939 0.244437 121.166 2.91021 117.01 7.41098C112.854 11.9118 110.657 17.8789 110.9 24C111.113 29.9689 113.639 35.6208 117.945 39.7603C122.251 43.8997 127.997 46.202 133.97 46.18H134.91C140.944 45.9291 146.64 43.3252 150.777 38.9262C154.915 34.5271 157.165 28.6827 157.046 22.6448C156.927 16.6069 154.448 10.8557 150.141 6.62309C145.833 2.39045 140.039 0.0130071 134 0V0Z" fill="#FFCF03"/>
        <path d="M86 82.5901H75.76C58.97 82.5901 45.16 87.5901 36.86 96.5901L32.42 101.44V89.6301C32.4227 88.7604 32.2536 87.8987 31.9226 87.0944C31.5916 86.2901 31.1051 85.5591 30.4911 84.9432C29.877 84.3273 29.1475 83.8386 28.3442 83.5052C27.5409 83.1717 26.6798 83.0001 25.81 83.0001H6.61003C5.74031 83.0001 4.87913 83.1717 4.07586 83.5052C3.2726 83.8386 2.54303 84.3273 1.92897 84.9432C1.31491 85.5591 0.82844 86.2901 0.497435 87.0944C0.166429 87.8987 -0.00260128 88.7604 3.02599e-05 89.6301V251.63C3.02599e-05 253.617 0.789153 255.522 2.1938 256.926C3.59845 258.331 5.50356 259.12 7.49003 259.12H24.93C26.9157 259.117 28.8193 258.327 30.2233 256.923C31.6274 255.519 32.4174 253.616 32.42 251.63V155.36L32.61 153.68C33.7751 143.052 38.8216 133.227 46.7823 126.089C54.743 118.952 65.058 115.003 75.75 115H86C87.9273 114.997 89.775 114.231 91.1378 112.868C92.5006 111.505 93.2674 109.657 93.27 107.73V89.8601C93.27 87.932 92.5041 86.0828 91.1407 84.7194C89.7773 83.356 87.9282 82.5901 86 82.5901Z" fill="#FFCF03"/>
        <path d="M142.74 83.02H125.18C121.077 83.02 117.75 86.3465 117.75 90.45V251.64C117.75 255.743 121.077 259.07 125.18 259.07H142.74C146.843 259.07 150.17 255.743 150.17 251.64V90.45C150.17 86.3465 146.843 83.02 142.74 83.02Z" fill="#FFCF03"/>
        <path d="M229.29 158.76L225.91 156.16C212.23 145.68 206.65 140.71 206.65 133.65C206.65 116.72 227.31 114.89 236.19 114.89H248.26C250.057 114.887 251.78 114.172 253.051 112.901C254.322 111.63 255.037 109.907 255.04 108.11V89.26C255.04 87.4609 254.326 85.7353 253.055 84.4622C251.784 83.1892 250.059 82.4726 248.26 82.47H236.19C199.13 82.47 174.19 103.04 174.19 133.65C174.19 157.41 191.19 170.42 206.19 181.9L209.31 184.29C223.31 195.34 229.09 201.29 229.09 209.42C229.09 225.42 208.5 226.66 202.18 226.66H184.4C182.603 226.663 180.88 227.378 179.609 228.649C178.338 229.92 177.623 231.643 177.62 233.44V252.29C177.623 254.087 178.338 255.81 179.609 257.081C180.88 258.352 182.603 259.067 184.4 259.07H202.19C230.77 259.07 261.52 243.54 261.52 209.42C261.52 184.27 242.89 169.52 229.29 158.76Z" fill="#FFCF03"/>
        <path d="M783.6 57.5801H783.37V59.1901H783.6V57.5801Z" fill="#FFCF03"/>
        <path d="M701.36 81.74H687.11C684.716 81.7373 682.418 82.6824 680.718 84.3688C679.019 86.0552 678.056 88.3458 678.04 90.74V142.74C678.063 154.555 675.702 166.253 671.099 177.135C666.496 188.017 659.745 197.858 651.25 206.07C642.78 214.382 632.732 220.913 621.696 225.277C610.661 229.641 598.864 231.75 587 231.48C538.71 230.57 499.42 190.08 499.42 141.22V90.76C499.404 88.3658 498.441 86.0752 496.742 84.3888C495.042 82.7024 492.744 81.7573 490.35 81.76H476.1C473.706 81.7573 471.408 82.7024 469.708 84.3888C468.009 86.0752 467.046 88.3658 467.03 90.76V140.94C467.03 207.62 520.77 262.69 586.83 263.69H588.74C620.653 263.765 651.311 251.262 674.07 228.89C685.603 217.704 694.766 204.311 701.013 189.508C707.26 174.705 710.463 158.797 710.43 142.73V90.73C710.412 88.3376 709.448 86.0495 707.748 84.3653C706.049 82.681 703.753 81.7373 701.36 81.74V81.74Z" fill="#FFCF03"/>
    </g>
    <defs>
        <clipPath id="clip0_288_122690">
            <rect width="897.65" height="263.7" fill="white"/>
        </clipPath>
    </defs>
</svg>
